<?xml version="1.0" standalone="no"?>
<!DOCTYPE svg PUBLIC "-//W3C//DTD SVG 20010904//EN"
 "http://www.w3.org/TR/2001/REC-SVG-20010904/DTD/svg10.dtd">
<svg version="1.0" xmlns="http://www.w3.org/2000/svg"
 width="717.000000pt" height="260.000000pt" viewBox="0 0 717.000000 260.000000"
 preserveAspectRatio="xMidYMid meet">

<g transform="translate(0.000000,260.000000) scale(0.100000,-0.100000)"
fill="#000000" stroke="none">
<path d="M980 2140 l0 -130 775 0 775 0 0 130 0 130 -775 0 -775 0 0 -130z"/>
<path d="M1249 1776 c-101 -29 -200 -112 -242 -204 -18 -39 -22 -65 -22 -157
0 -99 3 -115 27 -165 76 -154 249 -236 443 -209 85 12 156 43 213 95 l44 39
-75 68 c-42 37 -80 67 -84 67 -5 0 -20 -11 -33 -25 -33 -35 -101 -59 -152 -52
-138 18 -196 211 -94 313 65 65 167 65 243 -1 l38 -33 72 65 c40 36 73 70 73
75 0 20 -67 72 -130 102 -58 27 -76 31 -170 33 -64 1 -123 -3 -151 -11z"/>
<path d="M4763 1766 c3 -7 56 -84 117 -171 61 -87 114 -164 117 -170 2 -7 -52
-92 -121 -188 -69 -97 -126 -178 -126 -181 0 -3 61 -6 135 -6 l135 0 56 88
c31 48 60 91 64 95 4 5 35 -35 69 -87 l61 -96 141 0 140 0 -45 63 c-25 34 -85
119 -134 188 l-89 126 123 171 c68 95 124 174 124 177 0 3 -58 5 -129 5 l-128
0 -59 -90 c-33 -49 -61 -90 -64 -90 -3 0 -31 41 -64 90 l-59 90 -134 0 c-110
0 -134 -3 -130 -14z"/>
<path d="M3690 1670 l0 -80 -40 0 -40 0 0 -85 0 -85 40 0 40 0 0 -97 c0 -120
11 -163 55 -212 40 -44 112 -71 189 -71 56 1 124 14 137 27 5 5 -2 41 -17 85
l-25 76 -39 -5 c-55 -8 -72 21 -68 118 l3 74 58 3 57 3 0 84 0 85 -60 0 -60 0
0 80 0 80 -115 0 -115 0 0 -80z"/>
<path d="M2099 1616 c-25 -7 -59 -22 -75 -35 l-29 -23 -3 31 -3 31 -110 0
-109 0 0 -285 0 -285 120 0 120 0 0 154 c0 139 2 156 21 179 22 29 89 52 125
43 l24 -6 0 105 c0 118 4 114 -81 91z"/>
<path d="M3245 1621 c-17 -4 -43 -16 -58 -25 -26 -18 -27 -18 -27 3 0 20 -5
21 -115 21 l-115 0 0 -385 0 -385 120 0 120 0 0 115 c0 63 2 115 5 115 3 0 18
-8 32 -17 41 -27 175 -25 228 4 55 29 100 78 127 138 32 71 31 189 -1 263 -53
119 -187 184 -316 153z m50 -186 c37 -18 55 -51 55 -101 0 -71 -56 -126 -112
-109 -88 27 -100 166 -18 207 42 22 35 21 75 3z"/>
<path d="M4337 1620 c-91 -23 -171 -82 -210 -155 -32 -58 -31 -202 0 -261 57
-107 189 -172 328 -161 123 9 214 61 265 150 90 158 14 353 -162 414 -54 19
-171 25 -221 13z m128 -185 c105 -51 48 -244 -61 -208 -88 29 -90 190 -3 214
13 4 26 7 27 8 2 1 19 -6 37 -14z"/>
<path d="M2200 1614 c0 -3 52 -131 115 -283 63 -153 115 -282 115 -288 0 -25
-70 -31 -111 -9 -26 13 -26 13 -65 -65 -37 -77 -37 -79 -18 -93 56 -42 215
-46 290 -8 44 22 84 65 111 116 9 17 71 167 138 334 l122 302 -111 0 -112 0
-59 -151 c-36 -93 -61 -145 -66 -137 -4 7 -31 75 -60 151 l-52 137 -118 0
c-66 0 -119 -3 -119 -6z"/>
<path d="M1504 676 c-10 -26 4 -48 28 -44 17 2 23 10 23 28 0 18 -6 26 -23 28
-13 2 -25 -3 -28 -12z"/>
<path d="M2574 676 c-10 -26 4 -48 28 -44 17 2 23 10 23 28 0 18 -6 26 -23 28
-13 2 -25 -3 -28 -12z"/>
<path d="M5204 676 c-10 -26 4 -48 28 -44 17 2 23 10 23 28 0 18 -6 26 -23 28
-13 2 -25 -3 -28 -12z"/>
<path d="M1240 545 l0 -135 25 0 c23 0 25 3 25 51 0 77 28 112 71 89 16 -9 19
-22 19 -75 l0 -65 31 0 32 0 -5 75 c-7 100 -23 119 -95 113 l-53 -5 0 44 c0
39 -2 43 -25 43 l-25 0 0 -135z"/>
<path d="M1890 545 l0 -135 25 0 c17 0 25 5 25 18 0 10 7 27 15 38 15 18 16
18 48 -19 25 -29 39 -37 66 -37 l33 0 -34 43 c-54 66 -54 65 -12 108 l38 39
-35 0 c-27 0 -43 -8 -69 -35 -19 -19 -38 -35 -42 -35 -4 0 -8 34 -8 75 0 73
-1 75 -25 75 l-25 0 0 -135z"/>
<path d="M2740 667 c-14 -7 -27 -23 -28 -36 -2 -13 -12 -26 -23 -28 -22 -6
-26 -43 -4 -43 12 0 15 -15 15 -75 l0 -75 30 0 30 0 0 75 c0 73 1 75 25 75 18
0 25 5 25 20 0 15 -7 20 -25 20 -16 0 -25 6 -25 15 0 14 11 19 36 16 14 -2 27
27 18 40 -8 13 -45 11 -74 -4z"/>
<path d="M2892 668 c-13 -7 -26 -24 -29 -40 -3 -15 -12 -28 -19 -28 -19 0 -18
-36 1 -44 11 -4 15 -22 15 -76 0 -68 1 -70 25 -70 23 0 24 3 27 73 3 66 5 72
26 75 32 5 30 42 -3 42 -40 0 -25 34 15 35 8 0 15 9 15 20 0 24 -37 30 -73 13z"/>
<path d="M5363 665 c-11 -8 -24 -26 -27 -40 -4 -14 -13 -25 -21 -25 -8 0 -15
-9 -15 -20 0 -11 7 -20 15 -20 12 0 15 -15 15 -75 l0 -75 30 0 30 0 0 75 c0
41 3 74 8 74 26 -4 42 3 42 21 0 15 -7 20 -25 20 -16 0 -25 6 -25 15 0 14 11
19 36 16 14 -2 27 27 18 40 -8 14 -57 11 -81 -6z"/>
<path d="M5522 668 c-13 -7 -26 -24 -29 -40 -3 -15 -12 -28 -19 -28 -19 0 -18
-36 1 -44 11 -4 15 -22 15 -76 0 -68 1 -70 25 -70 23 0 24 3 27 73 3 66 5 72
26 75 32 5 30 42 -3 42 -40 0 -25 34 15 35 8 0 15 9 15 20 0 24 -37 30 -73 13z"/>
<path d="M980 641 c0 -16 8 -20 38 -23 l37 -3 3 -102 c3 -102 3 -103 27 -103
24 0 24 1 27 103 l3 102 38 3 c29 3 37 7 37 23 0 18 -8 19 -105 19 -97 0 -105
-1 -105 -19z"/>
<path d="M2260 536 l0 -126 84 0 c101 0 143 22 165 87 13 35 13 46 0 78 -23
62 -56 79 -160 83 l-89 4 0 -126z m179 48 c12 -15 21 -37 21 -49 0 -12 -9 -34
-21 -49 -17 -22 -28 -26 -70 -26 l-49 0 0 75 0 75 49 0 c42 0 53 -4 70 -26z"/>
<path d="M4210 535 l0 -125 75 0 c126 0 177 36 177 125 0 88 -52 125 -176 125
l-76 0 0 -125z m171 56 c29 -23 31 -81 4 -111 -13 -15 -30 -20 -67 -20 l-48 0
0 75 0 75 44 0 c28 0 52 -7 67 -19z"/>
<path d="M4890 535 l0 -127 89 4 c105 4 138 21 159 83 10 32 10 46 0 78 -21
64 -54 81 -159 85 l-89 4 0 -127z m179 49 c12 -15 21 -37 21 -49 0 -12 -9 -34
-21 -49 -17 -22 -28 -26 -70 -26 l-49 0 0 75 0 75 49 0 c42 0 53 -4 70 -26z"/>
<path d="M3930 620 c0 -11 -7 -20 -15 -20 -9 0 -15 -9 -15 -25 0 -15 5 -24 13
-22 8 1 13 -16 15 -53 4 -68 22 -90 74 -90 32 0 39 3 36 18 -2 9 -13 18 -26
20 -41 6 -45 104 -4 110 32 5 30 42 -3 42 -18 0 -25 5 -25 20 0 15 -7 20 -25
20 -18 0 -25 -5 -25 -20z"/>
<path d="M6560 620 c0 -11 -7 -20 -15 -20 -8 0 -15 -9 -15 -19 0 -10 7 -21 15
-25 11 -4 15 -21 15 -60 0 -67 16 -86 71 -86 33 0 40 3 37 18 -2 9 -13 18 -26
20 -41 6 -45 104 -4 110 32 5 30 42 -3 42 -18 0 -25 5 -25 20 0 15 -7 20 -25
20 -18 0 -25 -5 -25 -20z"/>
<path d="M1500 505 l0 -95 30 0 30 0 0 95 0 95 -30 0 -30 0 0 -95z"/>
<path d="M1630 505 c0 -95 0 -95 25 -95 24 0 25 3 25 58 0 44 5 63 18 75 42
38 72 7 72 -74 0 -56 1 -59 25 -59 24 0 25 2 25 75 0 62 -4 79 -20 95 -23 23
-88 28 -108 8 -9 -9 -12 -9 -12 0 0 7 -11 12 -25 12 -25 0 -25 0 -25 -95z"/>
<path d="M2570 505 l0 -95 30 0 30 0 0 95 0 95 -30 0 -30 0 0 -95z"/>
<path d="M3028 583 c-48 -30 -52 -100 -9 -144 24 -24 38 -29 76 -29 25 0 55 5
66 11 19 10 20 12 4 29 -14 15 -21 17 -36 7 -21 -13 -70 0 -77 21 -3 9 15 12
67 12 l71 0 0 29 c0 44 -43 81 -94 81 -22 0 -53 -8 -68 -17z m100 -35 c21 -21
13 -28 -33 -28 -43 0 -58 14 -38 33 11 11 58 8 71 -5z"/>
<path d="M3250 505 c0 -95 0 -95 25 -95 23 0 25 3 25 49 0 63 7 80 36 92 29
10 33 49 6 49 -10 0 -23 -5 -30 -12 -9 -9 -12 -9 -12 0 0 7 -11 12 -25 12 -25
0 -25 0 -25 -95z"/>
<path d="M3429 571 c-64 -64 -19 -161 76 -161 25 0 55 5 66 11 19 10 20 12 4
29 -14 15 -21 17 -36 7 -21 -13 -70 0 -77 21 -3 9 15 12 67 12 65 0 71 2 71
21 0 53 -39 88 -98 89 -35 0 -49 -6 -73 -29z m109 -23 c21 -21 13 -28 -33 -28
-43 0 -58 14 -38 33 11 11 58 8 71 -5z"/>
<path d="M3660 505 c0 -95 0 -95 25 -95 24 0 25 3 25 58 0 44 5 63 18 75 42
38 72 7 72 -74 0 -56 1 -59 25 -59 24 0 25 2 25 75 0 62 -4 79 -20 95 -23 23
-88 28 -108 8 -9 -9 -12 -9 -12 0 0 7 -11 12 -25 12 -25 0 -25 0 -25 -95z"/>
<path d="M4539 571 c-64 -65 -19 -161 76 -161 38 0 52 5 76 29 64 65 19 161
-76 161 -38 0 -52 -5 -76 -29z m109 -23 c7 -7 12 -27 12 -45 0 -26 -6 -36 -24
-45 -32 -14 -54 -5 -66 28 -20 51 41 99 78 62z"/>
<path d="M5200 505 l0 -95 30 0 30 0 0 95 0 95 -30 0 -30 0 0 -95z"/>
<path d="M5649 571 c-64 -64 -19 -161 76 -161 25 0 55 5 66 11 19 10 20 12 4
29 -14 15 -21 17 -36 7 -21 -13 -70 0 -77 21 -3 9 15 12 67 12 l71 0 0 29 c0
76 -112 111 -171 52z m109 -23 c21 -21 13 -28 -33 -28 -43 0 -58 14 -38 33 11
11 58 8 71 -5z"/>
<path d="M5880 505 c0 -95 0 -95 25 -95 23 0 25 3 25 49 0 63 7 80 36 92 29
10 33 49 6 49 -10 0 -23 -5 -30 -12 -9 -9 -12 -9 -12 0 0 7 -11 12 -25 12 -25
0 -25 0 -25 -95z"/>
<path d="M6059 571 c-64 -64 -19 -161 76 -161 25 0 55 5 66 11 19 10 20 12 4
29 -14 15 -21 17 -36 7 -21 -13 -70 0 -77 21 -3 9 15 12 67 12 65 0 71 2 71
21 0 53 -39 88 -98 89 -35 0 -49 -6 -73 -29z m109 -23 c21 -21 13 -28 -33 -28
-43 0 -58 14 -38 33 11 11 58 8 71 -5z"/>
<path d="M6290 505 c0 -95 0 -95 25 -95 24 0 25 3 25 58 0 44 5 63 18 75 42
38 72 7 72 -74 0 -56 1 -59 25 -59 24 0 25 2 25 75 0 62 -4 79 -20 95 -23 23
-88 28 -108 8 -9 -9 -12 -9 -12 0 0 7 -11 12 -25 12 -25 0 -25 0 -25 -95z"/>
</g>
</svg>
